<svg xmlns="http://www.w3.org/2000/svg" viewBox="0 0 512 512"><defs><style>.a{fill:#5cb8d0;}.b{fill:#3aa3bd;}.c{fill:#ddd;}.d{fill:#f2f2f2;}.e{fill:none;}.f{fill:#ccc;}.g{fill:#9ccc65;}.h{fill:#a3a3a3;}.i{fill:#ffb300;}</style></defs><title>Mesa de trabajo 1100</title><path class="a" d="M228,399.9l19.3-171.5c10.5,0,68.7-136.2,68.7-136.2L505.5,240.2c-.3-4.1-.6-8.1-1-12.1C490.5,103.2,384.6,6.1,256,6.1,117.9,6.1,6,118,6,256.1s111.9,250,250,250c7.3,0,14.6-.3,21.8-1L138.8,407.7Z"/><path class="b" d="M506,256.1c0-5.3-.2-10.6-.5-15.9L316,92.2s-58.2,136.2-68.7,136.2L228,399.9l-89.2,7.9,138.9,97.4C405.6,494.1,506,386.8,506,256.1Z"/><path class="c" d="M373.4,404.3V150.5a6.9,6.9,0,0,0-2.6-5.6L318.6,91.7a10.2,10.2,0,0,0-6-2.1H255.2V412.5H365.3A8.1,8.1,0,0,0,373.4,404.3Z"/><path class="d" d="M144.9,89.6a8.1,8.1,0,0,0-8.1,8.1V404.3a8.1,8.1,0,0,0,8.1,8.1H255.2V89.6Z"/><path class="e" d="M255.2,73.2V89.6h57.3a10.2,10.2,0,0,1,6,2.1l52.3,53.2a6.9,6.9,0,0,1,2.6,5.6V404.3a8.1,8.1,0,0,1-8.1,8.1H255.2v22.1H416.4V73.2Z"/><path class="f" d="M324.1,147.1h46.7a1.2,1.2,0,0,0,.9-1.7l-54-54c-.9-.9-1.7,0-1.7.9v46.7A8.1,8.1,0,0,0,324.1,147.1Z"/><rect class="g" x="156.1" y="118.8" width="117.9" height="16.72"/><rect class="h" x="156.1" y="173.6" width="197.7" height="8.15"/><rect class="h" x="156.1" y="196.4" width="197.7" height="8.15"/><rect class="h" x="156.1" y="219.5" width="144.1" height="8.15"/><rect class="h" x="156.1" y="242.7" width="178.4" height="8.15"/><rect class="h" x="156.1" y="265.8" width="190.4" height="8.15"/><rect class="h" x="156.1" y="289" width="144.1" height="8.15"/><path class="i" d="M201.7,392.1h0c-3.8,0-6.1-1.5-7.6-4.6s-.8-9.9,3-12.9c.8-.8,2.3-1.5,3-2.3s.8-.8,1.5-.8c3.8-3,5.3-8.4,6.8-13.7a345.1,345.1,0,0,0,6.8-43.3,3.3,3.3,0,0,1,3-3c1.5,0,3,.8,3.8,3,3,12.9,5.3,25.8,7.6,38.8,1.5-1.5,3-2.3,5.3-3.8a3.4,3.4,0,0,1,4.6,0v.8l11.4-6.8c.8-.8,2.3-.8,3.8,0a3.9,3.9,0,0,1,1.5,3v3.8c.8,0,1.5,0,1.5.8a4.7,4.7,0,0,1,.8,6.1c6.1-4.6,11.4-9.1,16.7-13.7,12.2-10.6,25.1-21.3,40.3-28.9a3.4,3.4,0,0,1,3,6.1c-13.7,7.6-26.6,18.2-38.8,28.1-9.1,7.6-18.2,15.2-28.9,22a80.8,80.8,0,0,1-8.4,6.8c-6.1,3.8-13.7,6.1-22,6.8h-3.8a3.6,3.6,0,0,1-3.8-3.8c0-2.3,1.5-3.8,3-3.8h3.8c3.8-.8,7.6-2.3,12.9-4.6,3-1.5,5.3-3,8.4-4.6a1.4,1.4,0,0,1,0-2.3,18,18,0,0,1,6.8-11.4v-1.5l-6.1,3.8c-.8.8-3,1.5-5.3,1.5-.8,0-.8,0-1.5-.8-3.8,3-8.4,6.1-12.9,9.1-1.5.8-3.8.8-4.6-.8a3.3,3.3,0,0,1-.8-3.8,6.2,6.2,0,0,1,3-4.6c.8,0,.8-.8,1.5-.8l.8-.8v-.8a157.2,157.2,0,0,0-3-16.7,103.1,103.1,0,0,1-4.6,22c-1.5,6.8-3.8,13.7-9.9,17.5-.8.8-1.5.8-2.3,1.5s-1.5.8-2.3,1.5a5.6,5.6,0,0,0-1.5,4.6,2.7,2.7,0,0,0,1.5.8,4,4,0,0,1,6.8,3.8C207,391.3,204.7,392.1,201.7,392.1Z"/></svg>