<?xml version="1.0"?>
<svg xmlns="http://www.w3.org/2000/svg" viewBox="0 0 64 64" width="512" height="512"><g id="Outline"><g><path d="M16,32a16,16,0,0,0,32,0,15.743,15.743,0,0,0-.143-2.039,1,1,0,0,0-1.984.254c.036.281.06.535.08.785H44a1,1,0,0,0,0,2h1.949a13.853,13.853,0,0,1-1.371,5.107l-1.685-.973a1,1,0,1,0-1,1.732l1.7.979a14.088,14.088,0,0,1-3.743,3.743l-.979-1.7a1,1,0,1,0-1.732,1l.973,1.685A13.853,13.853,0,0,1,33,45.949V44a1,1,0,0,0-2,0v1.949a13.853,13.853,0,0,1-5.107-1.371l.973-1.685a1,1,0,1,0-1.732-1l-.979,1.7a14.088,14.088,0,0,1-3.743-3.743l1.7-.979a1,1,0,1,0-1-1.732l-1.685.973A13.853,13.853,0,0,1,18.051,33H20a1,1,0,0,0,0-2H18.051a13.853,13.853,0,0,1,1.371-5.107l1.685.973a1,1,0,1,0,1-1.732l-1.7-.979a14.088,14.088,0,0,1,3.743-3.743l.979,1.7a1,1,0,1,0,1.732-1l-.973-1.685A13.853,13.853,0,0,1,31,18.051V20a1,1,0,0,0,2,0V18.037a13.984,13.984,0,0,1,5.117,1.368l-.983,1.7a1,1,0,1,0,1.732,1l.984-1.7a13.955,13.955,0,0,1,3.738,3.751l-1.7.979a1,1,0,1,0,1,1.732l1.7-.979c.114.237.229.474.332.719a1,1,0,1,0,1.846-.771A16,16,0,0,0,16,32Z"/><path d="M37.979,26.592l-5.734,4.015-2.294-3.276a1,1,0,0,0-1.639,1.147l2.869,4.095a1,1,0,0,0,.645.411A.931.931,0,0,0,32,33a.994.994,0,0,0,.573-.181l6.553-4.589a1,1,0,1,0-1.147-1.638Z"/><path d="M49,23H59a1,1,0,0,0,1-1V8a1,1,0,0,0-1-1H49a1,1,0,0,1,0-2H59a1,1,0,0,0,0-2H49a3,3,0,0,0-3,3V20A3,3,0,0,0,49,23ZM48,8.829A3,3,0,0,0,49,9h9V21H49a1,1,0,0,1-1-1Z"/><path d="M51,14h4a1,1,0,0,0,0-2H51a1,1,0,0,0,0,2Z"/><path d="M51,18h4a1,1,0,0,0,0-2H51a1,1,0,0,0,0,2Z"/><path d="M24,52H22V49a1,1,0,0,0-2,0v3a2,2,0,0,0-2,2v2H4V46H8.586l6.707,6.707a1,1,0,0,0,1.414-1.414L11.414,46H17a1,1,0,0,0,0-2H3a1,1,0,0,0-1,1V57a1,1,0,0,0,1,1H8.382l-1,2H5a1,1,0,0,0,0,2H24a2,2,0,0,0,2-2V54A2,2,0,0,0,24,52ZM9.618,60l1-2h2.764l1,2Zm7,0-1-2H18v2ZM20,60V57.048c0-.017.01-.031.01-.048S20,56.969,20,56.952V54h4l0,6Z"/><path d="M60.5,49.536l-2.459-1.42a9.468,9.468,0,0,0,0-2.232l2.459-1.42a1,1,0,0,0,.366-1.366l-3-5.2a1,1,0,0,0-1.366-.366l-2.461,1.42a9.952,9.952,0,0,0-1.932-1.112V35a1,1,0,0,0-2,0v3.523a1,1,0,0,0,.666.943A7.951,7.951,0,0,1,53.3,40.922a1,1,0,0,0,1.15.106l2.184-1.259,2,3.462-2.183,1.261a1,1,0,0,0-.483,1.048,7.737,7.737,0,0,1,0,2.92,1,1,0,0,0,.483,1.048l2.183,1.261-2,3.462L54.45,52.972a1,1,0,0,0-1.15.106,7.951,7.951,0,0,1-2.527,1.456,1,1,0,0,0-.666.943V58h-4V55.477a1,1,0,0,0-.666-.943,7.957,7.957,0,0,1-2.526-1.456,1,1,0,0,0-1.15-.106l-2.184,1.259-2.5-4.329a1,1,0,1,0-1.732,1l3,5.2a1,1,0,0,0,1.366.366l2.461-1.42a9.944,9.944,0,0,0,1.931,1.112V59a1,1,0,0,0,1,1h6a1,1,0,0,0,1-1V56.156a9.952,9.952,0,0,0,1.932-1.112l2.461,1.42a1,1,0,0,0,1.366-.366l3-5.2A1,1,0,0,0,60.5,49.536Z"/><path d="M44.107,47a4,4,0,1,0,4-4A4,4,0,0,0,44.107,47Zm4-2a2,2,0,1,1-2,2A2,2,0,0,1,48.107,45Z"/><path d="M4,22H7v3a1,1,0,0,0,1,1h5.738a1,1,0,0,0,0-2H9V22h7a1,1,0,0,0,1-1V10h2v7.027a1,1,0,0,0,2,0V9a1,1,0,0,0-1-1H17V5a1,1,0,0,0-1-1H4A1,1,0,0,0,3,5V21A1,1,0,0,0,4,22ZM5,6H15V20H5Z"/><path d="M10,10h2a1,1,0,0,0,0-2H10a1,1,0,0,0,0,2Z"/><path d="M8,14h4a1,1,0,0,0,0-2H8a1,1,0,0,0,0,2Z"/><path d="M12,18a1,1,0,0,0,0-2H8a1,1,0,0,0,0,2Z"/><path d="M34.86,55.824a23.3,23.3,0,0,1-5.61.013,1,1,0,1,0-.236,1.986,25.313,25.313,0,0,0,6.092-.014,1,1,0,1,0-.246-1.985Z"/><path d="M54.478,24.513a1,1,0,0,0-.635,1.263A22.984,22.984,0,0,1,55,33a1,1,0,0,0,2,0,24.962,24.962,0,0,0-1.259-7.853A1,1,0,0,0,54.478,24.513Z"/><path d="M26.309,10.709a23.265,23.265,0,0,1,12.878.437,1,1,0,1,0,.625-1.9,25.277,25.277,0,0,0-14-.474,1,1,0,0,0,.5,1.938Z"/><path d="M8.284,29.163a1,1,0,0,0-1.11.876A25.385,25.385,0,0,0,7,33a25.058,25.058,0,0,0,.928,6.772,1,1,0,0,0,.962.73,1.022,1.022,0,0,0,.271-.037,1,1,0,0,0,.693-1.234A23.036,23.036,0,0,1,9,33a23.358,23.358,0,0,1,.16-2.727A1,1,0,0,0,8.284,29.163Z"/></g></g></svg>
